<svg id="icons" enable-background="new 0 0 64 64" height="512" viewBox="0 0 64 64" width="512" xmlns="http://www.w3.org/2000/svg"><path d="m44.99 20v28.99c0 1.1.899 2 2 2h14.01c1.09 0 2-.9 2-2v-28.99z" fill="#545c66"/><path d="m54 28c1.1 0 2 .9 2 2 0 1.11-.9 2-2 2-1.11 0-2-.89-2-2 0-1.1.89-2 2-2z" fill="#5d9cec"/><path d="m63 15.01v1.99h-18.01v-1.99c0-1.1.899-2 2-2h14.01c1.09 0 2 .9 2 2z" fill="#545c66"/><path d="m44.99 17h18.01v3h-18.01z" fill="#656d78"/><path d="m14.99 47.99h12 2c1.1 0 2 .89 2 2v1h-20v-1c0-1.11.899-2 2-2z" fill="#e6e9ed"/><path d="m25.99 43.99 1 4h-12l1-4z" fill="#ccd1d9"/><path d="m1.05 39.99h39.93v2c0 1.1-.9 2-2 2h-4.01-8.98-10-12.99c-1.1 0-2-.9-2-2v-2z" fill="#e6e9ed"/><path d="m40.98 15.01v24.98h-39.93-.05v-24.98c0-1.1.9-2 2-2h35.98c1.1 0 2 .9 2 2z" fill="#5d9cec"/><path d="m24.497 39.99h-5l-4.004-26.98h5z" fill="#87bcf4"/><path d="m26.499 39.99h-.996l-4.004-26.98h.996z" fill="#87bcf4"/><path d="m21.022 42.994c-.553 0-1.005-.447-1.005-1s.442-1 .994-1h.011c.552 0 1 .447 1 1s-.448 1-1 1z"/><path d="m40.981 40.994h-39.931c-.553 0-1-.447-1-1s.447-1 1-1h39.932c.553 0 1 .447 1 1s-.448 1-1.001 1z"/><path d="m38.981 44.994h-35.978c-1.654 0-3-1.346-3-3v-26.984c0-1.654 1.346-3 3-3h35.979c1.654 0 3 1.346 3 3v26.984c-.001 1.654-1.346 3-3.001 3zm-35.978-30.984c-.552 0-1 .448-1 1v26.984c0 .552.448 1 1 1h35.979c.552 0 1-.448 1-1v-26.984c0-.552-.448-1-1-1z"/><path d="m14.996 48.99c-.08 0-.162-.01-.243-.03-.536-.134-.862-.677-.728-1.212l.999-3.996c.134-.537.676-.865 1.212-.728.536.134.862.677.728 1.212l-.999 3.996c-.113.456-.521.758-.969.758z"/><path d="m26.988 48.99c-.448 0-.855-.303-.969-.758l-.999-3.996c-.135-.535.191-1.078.728-1.212.535-.137 1.078.191 1.212.728l.999 3.996c.135.535-.191 1.078-.728 1.212-.081.02-.163.03-.243.03z"/><path d="m10.995 50.99c-.553 0-1-.447-1-1 0-1.654 1.346-3 3-3 .553 0 1 .447 1 1s-.447 1-1 1c-.552 0-1 .448-1 1 0 .553-.447 1-1 1z"/><path d="m30.989 50.99c-.553 0-1-.447-1-1 0-.552-.448-1-1-1-.553 0-1-.447-1-1s.447-1 1-1c1.654 0 3 1.346 3 3 0 .553-.447 1-1 1z"/><path d="m28.989 48.99h-15.994c-.553 0-1-.447-1-1s.447-1 1-1h15.994c.553 0 1 .447 1 1s-.447 1-1 1z"/><path d="m10.995 51.99c-.553 0-1-.447-1-1v-1c0-.553.447-1 1-1s1 .447 1 1v1c0 .553-.447 1-1 1z"/><path d="m30.989 51.99h-19.994c-.553 0-1-.447-1-1s.447-1 1-1h19.994c.553 0 1 .447 1 1s-.447 1-1 1z"/><path d="m30.989 51.99c-.553 0-1-.447-1-1v-1c0-.553.447-1 1-1s1 .447 1 1v1c0 .553-.447 1-1 1z"/><path d="m60.997 51.99h-14.001c-1.654 0-3-1.346-3-3v-33.98c0-1.654 1.346-3 3-3h14.001c1.654 0 3 1.346 3 3v33.98c0 1.655-1.346 3-3 3zm-14.001-37.98c-.552 0-1 .448-1 1v33.98c0 .552.448 1 1 1h14.001c.552 0 1-.448 1-1v-33.98c0-.552-.448-1-1-1z"/><path d="m62.997 18.006h-18.001c-.553 0-1-.447-1-1s.447-1 1-1h18.001c.553 0 1 .447 1 1s-.447 1-1 1z"/><path d="m62.997 21.004h-18.001c-.553 0-1-.447-1-1s.447-1 1-1h18.001c.553 0 1 .447 1 1s-.447 1-1 1z"/><path d="m53.997 33.004c-1.654 0-3-1.346-3-3s1.346-3 3-3 3 1.346 3 3-1.346 3-3 3zm0-4c-.552 0-1 .448-1 1s.448 1 1 1 1-.448 1-1-.448-1-1-1z"/><path d="m57.997 41.006h-8c-.553 0-1-.447-1-1s.447-1 1-1h8c.553 0 1 .447 1 1s-.447 1-1 1z"/><path d="m57.997 44.006h-8c-.553 0-1-.447-1-1s.447-1 1-1h8c.553 0 1 .447 1 1s-.447 1-1 1z"/><path d="m57.997 47.006h-8c-.553 0-1-.447-1-1s.447-1 1-1h8c.553 0 1 .447 1 1s-.447 1-1 1z"/></svg>